# Blender v3.6.2 OBJ File: ''
# www.blender.org
mtllib test_mesh.mtl
o Cube
v -0.528164 0.201865 1.696235
v -0.528164 -0.854464 1.696235
v -0.528164 0.201865 -0.436122
v -0.528164 -0.854464 -0.436122
v 0.528164 0.201865 1.696235
v 0.528164 -0.854464 1.696235
v 0.528164 0.201865 -0.436122
v 0.528164 -0.854464 -0.436122
v 0.528164 -0.854464 1.442404
v 0.528164 -0.854464 -0.182291
v -0.528164 0.201865 1.442404
v -0.528164 0.201865 -0.182291
v 0.528164 0.201865 -0.182291
v 0.528164 0.201865 1.442404
v -0.528164 -0.854464 -0.182291
v -0.528164 -0.854464 1.442404
v -0.349397 -0.854464 1.696235
v 0.349397 -0.854464 1.696235
v -0.144850 -0.002682 -0.436122
v 0.144850 -0.002682 -0.436122
v 0.144850 -0.649917 -0.436122
v -0.144850 -0.649917 -0.436122
v 0.349397 0.201865 1.696235
v -0.349397 0.201865 1.696235
v -0.349397 -0.854464 1.442404
v 0.349397 -0.854464 1.442404
v -0.349397 -0.854464 -0.182291
v 0.349397 -0.854464 -0.182291
v 0.349397 0.201865 1.442404
v -0.349397 0.201865 1.442404
v 0.349397 0.201865 -0.182291
v -0.349397 0.201865 -0.182291
v 0.528164 -1.604687 -0.182291
v 0.528164 -1.604687 -0.436122
v 0.349397 -1.604687 1.696235
v 0.528164 -1.604687 1.696235
v -0.349397 -1.604687 -0.436122
v -0.528164 -1.604687 -0.436122
v -0.528164 -1.604687 1.442404
v -0.528164 -1.604687 1.696235
v 0.528164 -1.604687 1.442404
v -0.528164 -1.604687 -0.182291
v 0.349397 -1.604687 1.442404
v 0.349397 -1.604687 -0.182291
v -0.349397 -1.604687 1.696235
v 0.349397 -1.604687 -0.436122
v -0.349397 -1.604687 1.442404
v -0.349397 -1.604687 -0.182291
v -0.349397 0.201865 -0.436122
v 0.349397 0.201865 -0.436122
v 0.349397 -0.854464 -0.436122
v -0.349397 -0.854464 -0.436122
v -0.378841 0.520088 -1.352407
v 0.378841 0.520088 -1.352407
v 0.378841 -1.172688 -1.352407
v -0.378841 -1.172688 -1.352407
vt 0.832691 0.666667
vt 0.875000 0.666667
vt 0.875000 0.750000
vt 0.832691 0.750000
vt 0.375000 0.957691
vt 0.625000 0.957691
vt 0.625000 1.000000
vt 0.375000 1.000000
vt 0.375000 0.166667
vt 0.625000 0.166667
vt 0.625000 0.250000
vt 0.375000 0.250000
vt 0.125000 0.666667
vt 0.167309 0.666667
vt 0.167309 0.666667
vt 0.125000 0.666667
vt 0.375000 0.666667
vt 0.625000 0.666667
vt 0.625000 0.750000
vt 0.375000 0.750000
vt 0.375000 0.457691
vt 0.625000 0.457691
vt 0.625000 0.500000
vt 0.375000 0.500000
vt 0.625000 0.583333
vt 0.375000 0.583333
vt 0.375000 0.792309
vt 0.375000 0.792309
vt 0.375000 0.750000
vt 0.332691 0.583333
vt 0.332691 0.666667
vt 0.375000 0.000000
vt 0.625000 0.000000
vt 0.625000 0.083333
vt 0.375000 0.083333
vt 0.832691 0.500000
vt 0.875000 0.500000
vt 0.875000 0.583333
vt 0.832691 0.583333
vt 0.667309 0.583333
vt 0.667309 0.666667
vt 0.667309 0.500000
vt 0.125000 0.583333
vt 0.167309 0.583333
vt 0.375000 0.083333
vt 0.375000 0.000000
vt 0.167309 0.500000
vt 0.332691 0.500000
vt 0.625000 0.292309
vt 0.375000 0.292309
vt 0.125000 0.583333
vt 0.167309 0.583333
vt 0.332691 0.750000
vt 0.167309 0.750000
vt 0.625000 0.792309
vt 0.423410 0.840718
vt 0.576590 0.840718
vt 0.576590 0.840718
vt 0.423410 0.840718
vt 0.667309 0.750000
vt 0.332691 0.666667
vt 0.375000 0.666667
vt 0.332691 0.750000
vt 0.332691 0.500000
vt 0.375000 0.500000
vt 0.375000 0.583333
vt 0.332691 0.583333
vt 0.125000 0.500000
vt 0.167309 0.500000
vt 0.167309 0.750000
vt 0.125000 0.750000
vt 0.375000 0.292309
vt 0.375000 0.250000
vt 0.375000 1.000000
vt 0.375000 0.957691
vt 0.375000 0.166667
vt 0.375000 0.457691
vt 0.576590 0.909282
vt 0.423410 0.909281
vt 0.576590 0.909282
vt 0.423410 0.909281
vn 0.0000 1.0000 0.0000
vn 0.0000 0.0000 -1.0000
vn 1.0000 0.0000 -0.0000
vn 0.0000 0.0000 1.0000
vn -1.0000 0.0000 0.0000
vn 0.0000 -1.0000 -0.0000
vn -0.9689 0.0000 0.2474
vn 0.0000 0.8686 0.4956
vn 0.9689 0.0000 0.2474
vn 0.0000 -0.8686 0.4956
usemtl Material
s off
f 31/1/1 13/2/1 7/3/1 50/4/1
f 51/5/2 50/6/2 7/7/2 8/8/2
f 9/9/3 14/10/3 5/11/3 6/12/3
f 10/13/4 28/14/4 44/15/4 33/16/4
f 15/17/5 12/18/5 3/19/5 4/20/5
f 17/21/4 24/22/4 1/23/4 2/24/4
f 2/24/5 1/23/5 11/25/5 16/26/5
f 16/26/5 11/25/5 12/18/5 15/17/5
f 4/20/2 52/27/2 37/28/2 38/29/2
f 25/30/6 16/26/6 15/17/6 27/31/6
f 8/32/3 7/33/3 13/34/3 10/35/3
f 10/35/3 13/34/3 14/10/3 9/9/3
f 23/36/1 5/37/1 14/38/1 29/39/1
f 29/39/1 14/38/1 13/2/1 31/1/1
f 11/25/1 30/40/1 32/41/1 12/18/1
f 30/40/1 29/39/1 31/1/1 32/41/1
f 1/23/1 24/42/1 30/40/1 11/25/1
f 24/42/1 23/36/1 29/39/1 30/40/1
f 9/43/6 26/44/6 28/14/6 10/13/6
f 26/44/6 25/30/6 27/31/6 28/14/6
f 8/32/3 10/35/3 33/45/3 34/46/3
f 18/47/6 17/48/6 25/30/6 26/44/6
f 6/12/4 5/11/4 23/49/4 18/50/4
f 18/50/4 23/49/4 24/22/4 17/21/4
f 26/44/2 9/43/2 41/51/2 43/52/2
f 28/14/6 27/31/6 52/53/6 51/54/6
f 4/20/2 3/19/2 49/55/2 52/27/2
f 22/56/7 19/57/7 53/58/7 56/59/7
f 12/18/1 32/41/1 49/60/1 3/19/1
f 32/41/1 31/1/1 50/4/1 49/60/1
f 48/61/6 42/62/6 38/29/6 37/63/6
f 45/64/6 40/65/6 39/66/6 47/67/6
f 36/68/6 35/69/6 43/52/6 41/51/6
f 33/16/6 44/15/6 46/70/6 34/71/6
f 6/12/4 18/50/4 35/72/4 36/73/4
f 27/31/4 15/17/4 42/62/4 48/61/4
f 28/14/5 51/54/5 46/70/5 44/15/5
f 51/5/2 8/8/2 34/74/2 46/75/2
f 52/53/3 27/31/3 48/61/3 37/63/3
f 15/17/5 4/20/5 38/29/5 42/62/5
f 2/24/5 16/26/5 39/66/5 40/65/5
f 9/9/3 6/12/3 36/73/3 41/76/3
f 18/47/5 26/44/5 43/52/5 35/69/5
f 17/21/4 2/24/4 40/65/4 45/77/4
f 16/26/2 25/30/2 47/67/2 39/66/2
f 25/30/3 17/48/3 45/64/3 47/67/3
f 20/78/2 19/57/2 49/55/2 50/6/2
f 22/56/2 21/79/2 51/5/2 52/27/2
f 19/57/2 22/56/2 52/27/2 49/55/2
f 21/79/2 20/78/2 50/6/2 51/5/2
f 56/59/2 53/58/2 54/80/2 55/81/2
f 19/57/8 20/78/8 54/80/8 53/58/8
f 20/78/9 21/79/9 55/81/9 54/80/9
f 21/79/10 22/56/10 56/59/10 55/81/10
